<?xml version="1.0" encoding="UTF-8"?><svg id="Layer_1" xmlns="http://www.w3.org/2000/svg" viewBox="0 0 800 400"><defs><style>.cls-1{font-family:GillSans-UltraBold, 'Gill Sans Ultra Bold';font-size:123.26px;}.cls-1,.cls-2{fill:#1880a0;}.cls-3{fill:#3d414a;}.cls-4{fill:#fdae49;}</style></defs><circle class="cls-4" cx="246.38" cy="187.5" r="146.47"/><path class="cls-3" d="M70.98,304.28c-.09,8.44-6.71,14.64-15.55,14.57-7.64-.07-14.51-7.19-14.18-15.3,.32-7.82,6.23-14.7,15.4-14.41,8.04,.26,14.42,6.25,14.34,15.14Z"/><path class="cls-3" d="M235.01,145.3c-6.59,6.38-12.98,12.96-19.51,19.4-1.12,1.1-1.44,2.26-1.44,3.75,.02,30.52,.03,61.03,0,91.55,0,2.84,.36,5.74-.88,8.46-2.08,4.59-5.42,8.14-10.97,8.19-17.75,.15-35.5,.09-53.25,.08-.56,0-1.05,.03-1.39,.19h-3.35c-.1,0-.2-.01-.3-.02-.1,0-.21,0-.31,0-.11,0-.22,0-.34,0-38.76,.03-77.53,.04-116.29,.01-3.14,0-6.24-.08-9.14-1.8-5.59-3.32-7.63-9.83-4.24-15.36,1.97-3.22,5.08-5.09,8.99-5.27,1.28-.06,2.57-.02,3.86-.02,35.08,0,70.15,0,105.22-.01,.77,0,1.62,.19,2.32-.18h2.16c.24,.03,.5,.04,.76,.04,17.51,0,35.03,0,52.54-.01,2.06,0,2.22-.18,2.22-2.39,.01-16.28,.01-32.56,.02-48.85,0-13.17,.07-26.35-.01-39.53-.03-4.96,1.91-8.81,5.46-12.19,5.4-5.15,10.56-10.56,15.89-15.79,2.63-2.57,5.01-5.4,7.92-7.68,6.02-4.71,14.58-2.71,17.14,4.68,1.52,4.38,.74,9.08-3.07,12.77Z"/><path class="cls-3" d="M169.39,304.28c-.09,8.44-6.71,14.64-15.55,14.57-7.64-.07-14.51-7.19-14.18-15.3,.32-7.82,6.23-14.7,15.4-14.41,8.04,.26,14.42,6.25,14.34,15.14Z"/><path class="cls-2" d="M174.66,230.94c-.29-1.97-.51-3.95-.8-5.91-1.07-7.13-2.41-14.22-3.29-21.39-.25-2.02-.49-4.05-.8-6.06-.77-5-1.74-9.96-2.47-14.96-.88-5.93-1.48-11.91-2.44-17.83-.35-2.14-.51-4.28-.87-6.42-.86-5.06-1.73-10.12-2.4-15.21-.5-3.83-2.51-6.38-6.13-7.59-.72-.24-1.44-.38-2.17-.47H48.98c-3.84,.6-7.04,2.37-7.8,6.28-.99,5.1-1.65,10.27-2.43,15.41-.63,4.1-1.22,8.2-1.83,12.31-.8,5.36-1.63,10.72-2.39,16.08-.56,3.92-1.02,7.88-1.69,11.78-.91,5.34-1.69,10.71-2.43,16.07-.82,5.9-1.89,11.75-2.48,17.69-.42,4.26,1.89,8.09,6.03,8.78,.86,.15,1.73,.29,2.6,.4H166.56c.6-.08,1.19-.21,1.76-.37,4.05-1.14,7.06-3.67,6.34-8.6Zm-109.76-79.9c0-.19,0-.38,.03-.57,.16-1.59,.99-2.99,2.21-3.91,.95-.72,2.12-1.14,3.39-1.14h1.25c.98,0,1.9,.25,2.71,.7,.55,.3,1.05,.7,1.47,1.16,.06,.07,.12,.14,.18,.22,.79,.97,1.27,2.21,1.27,3.55v6.52c0,1.95-1.01,3.68-2.53,4.69-.89,.59-1.95,.93-3.1,.93h-1.25c-1.16,0-2.25-.36-3.15-.97-.02-.02-.04-.03-.06-.05-1.38-.97-2.32-2.54-2.4-4.32,0-.03,0-.05,0-.08,0-.07,0-.15,0-.22v-6.52Zm11.06,38.12h0s-.03-.04-.04-.06c.01,.02,.03,.04,.05,.06Zm25.51,26.71c-20.2,0-36.58-16.21-36.58-36.21,0-1.87,.14-3.73,.42-5.53,2.69,17.37,17.86,30.67,36.16,30.67s33.47-13.3,36.16-30.67c.28,1.8,.42,3.65,.42,5.53,0,19.99-16.38,36.21-36.58,36.21Zm36.58-58.3c0,1.95-1.01,3.68-2.53,4.69-.89,.59-1.95,.93-3.1,.93h-1.25c-1.16,0-2.25-.36-3.15-.97-.02-.02-.04-.03-.06-.05-1.38-.97-2.32-2.54-2.4-4.32,0-.03,0-.05,0-.08,0-.07,0-.15,0-.22v-6.52c0-.19,0-.38,.03-.57,.16-1.59,.99-2.99,2.21-3.91,.95-.72,2.12-1.14,3.39-1.14h1.25c.98,0,1.9,.25,2.71,.7,.55,.3,1.05,.7,1.47,1.16,.06,.07,.12,.14,.18,.22,.79,.97,1.27,2.21,1.27,3.55v6.52Z"/><path class="cls-2" d="M140.63,125.81h0c-.81,1.47-2.25,2.56-4.02,2.85h-.09c-1.53,.27-3.01-.13-4.19-.97-.97-.7-1.54-1.57-1.86-2.3-.3-.65-.39-1.17-.42-1.35-.6-3.66-1.2-7.32-1.8-10.98t0,0c-4.51-15.33-14.88-26.04-26.95-26.04s-21.41,9.68-26.24,23.79c-.72,4.37-1.44,8.74-2.16,13.1-.04,.24-.21,1.15-.83,2.12-.33,.52-.8,1.07-1.44,1.53-1.17,.84-2.66,1.24-4.19,.98h-.09c-1.64-.28-2.99-1.24-3.82-2.55-.72-1.13-1.05-2.51-.81-3.93,.22-1.31,.43-2.62,.65-3.92,.63-3.84,1.26-7.68,1.89-11.52,2.75-9.68,8.22-17.93,15.36-23.53,6.27-4.91,13.83-7.78,21.96-7.78s15.5,2.8,21.72,7.6c6.89,5.31,12.25,13.09,15.15,22.23,0,0,0,0,0,.01,.8,4.85,1.6,9.71,2.39,14.56h0c.14,.83,.27,1.65,.41,2.48,.21,1.28-.04,2.54-.62,3.61Z"/><text class="cls-1" transform="translate(250.8 231.59) scale(.79 1)"><tspan x="0" y="0">DUKKAN</tspan></text></svg>